<svg width="120" height="125" viewBox="0 0 120 125" fill="none" xmlns="http://www.w3.org/2000/svg">
<path fill-rule="evenodd" clip-rule="evenodd" d="M57.2916 19.4484C50.8857 20.55 46.0454 24.315 43.6141 30.0874C43.4549 30.465 43.2643 31.0305 43.1083 31.5879C43.0314 31.863 42.8966 32.3412 42.8087 32.6507C42.6977 33.0411 42.6343 35.0518 42.6006 39.2153C42.5741 42.5163 42.5236 45.3391 42.4889 45.4878C42.4268 45.7529 42.3709 45.7592 39.617 45.802C36.3671 45.8523 35.9878 45.9592 34.8659 47.1399C33.7591 48.3047 33.8249 47.2587 33.8655 63.1006L33.9012 77.1021L34.2101 77.6904C34.5877 78.4088 35.4932 79.22 36.3228 79.5829L36.9406 79.853H60.1989C83.0765 79.853 83.4657 79.8489 83.9857 79.6067C84.7096 79.2691 85.6455 78.355 86.0383 77.6023L86.3644 76.9771V62.8477V48.7182L86.0182 48.0302C85.8279 47.6516 85.4057 47.1099 85.0799 46.8258C84.551 46.3644 84.2395 46.1871 83.325 45.8276C83.1796 45.7704 81.8416 45.6942 80.3516 45.6579L77.6426 45.5923L77.5689 39.4028C77.5286 35.9986 77.4506 33.0727 77.3958 32.9008C77.3409 32.7288 77.2329 32.335 77.1559 32.0255C75.7727 26.4706 71.1454 21.7404 65.4188 20.028C63.1382 19.3459 59.4268 19.0811 57.2916 19.4484ZM63.2383 23.2637C67.926 24.3565 71.5895 27.5575 73.0636 31.8489C73.6989 33.6985 73.766 34.571 73.72 40.4031L73.6781 45.7173H60.0667H46.4554V39.8405C46.4554 33.5347 46.4676 33.395 47.1871 31.4735C49.4783 25.3553 56.5952 21.7151 63.2383 23.2637ZM61.0301 56.5873C65.0682 57.6045 66.0389 62.2278 62.6767 64.43L62.115 64.7976L62.1055 67.6363C62.0946 70.7886 62.0559 70.9543 61.1982 71.5035C60.521 71.9377 59.9742 71.9836 59.2791 71.6654C58.1287 71.1384 58.0911 71.0177 58.0389 67.6907L57.9936 64.7817L57.4436 64.4238C53.3922 61.7861 56.315 55.3997 61.0301 56.5873Z" fill="black"/>
<path fill-rule="evenodd" clip-rule="evenodd" d="M68.8234 8.60719L60.0041 8.64502L59.9694 13.8645L59.9351 19.0839L59.4065 19.1514C59.0989 19.1908 59.6797 19.2518 60.794 19.2974C64.3102 19.4409 67.014 20.2708 69.8463 22.0758C73.449 24.3718 76.1742 28.0814 77.1564 32.0255C77.2334 32.3349 77.3414 32.7288 77.3963 32.9007C77.4511 33.0727 77.5291 35.9986 77.5694 39.4028L77.6431 45.5922L80.3521 45.6579C81.8421 45.6941 83.1801 45.7704 83.3255 45.8276C84.24 46.1871 84.5515 46.3643 85.0804 46.8257C85.4062 47.1099 85.8284 47.6516 86.0187 48.0302L86.3649 48.7182V62.8476V76.977L86.0388 77.6022C85.646 78.355 84.7101 79.269 83.9862 79.6066C83.4679 79.8483 83.008 79.8542 60.5298 79.9164C46.029 79.9564 41.7183 79.9908 48.8015 80.0102L60.0012 80.0405V97.2503V114.46L60.6001 114.383C61.1129 114.316 62.841 113.644 63.0406 113.433C63.0769 113.395 63.3743 113.232 63.7013 113.072C64.6488 112.608 65.3479 112.243 65.4193 112.176C65.4556 112.141 65.6274 112.037 65.8008 111.945C65.9743 111.853 66.3311 111.663 66.5937 111.523C67.5178 111.032 69.8654 109.617 71.6164 108.495C72.5897 107.872 73.4817 107.305 73.5986 107.237C73.7153 107.168 73.8405 107.081 73.8768 107.043C73.9132 107.005 74.151 106.839 74.4054 106.674C74.6598 106.508 74.8977 106.342 74.934 106.305C74.9704 106.267 75.5056 105.874 76.1234 105.431C76.7412 104.988 77.4313 104.482 77.6573 104.306C77.8832 104.13 78.1812 103.901 78.32 103.798C78.9299 103.344 80.0465 102.459 80.37 102.172C80.5642 102.001 81.1097 101.55 81.5821 101.172C82.4827 100.451 87.6217 95.606 88.7489 94.4153C89.9518 93.1443 90.3254 92.737 90.9224 92.0443C91.2485 91.666 91.5462 91.3284 91.5838 91.294C91.6215 91.2596 91.8148 91.0255 92.013 90.7736C92.2115 90.5216 92.4494 90.2403 92.5419 90.1484C92.7781 89.913 95.1545 86.858 95.6867 86.1049C95.9299 85.761 96.1767 85.461 96.2355 85.4381C96.2943 85.415 96.3422 85.3428 96.3422 85.2775C96.3422 85.2121 96.7584 84.5716 97.2672 83.8542C97.776 83.1368 98.1923 82.5141 98.1923 82.471C98.1923 82.4278 98.3069 82.2403 98.4467 82.054C98.8015 81.5826 100.543 78.6582 101.097 77.6022C101.35 77.1208 101.588 76.6988 101.626 76.6645C101.782 76.5219 102.025 76.0296 102.025 75.8533C102.025 75.7492 102.084 75.6641 102.157 75.6641C102.229 75.6641 102.289 75.5944 102.289 75.5091C102.289 75.4234 102.492 74.9592 102.74 74.4775C103.64 72.7273 105.147 69.2099 105.74 67.4741C105.834 67.199 105.958 66.9205 106.016 66.8551C106.074 66.7898 106.121 66.6344 106.121 66.5097C106.121 66.385 106.175 66.1852 106.24 66.0658C106.305 65.9464 106.49 65.4266 106.65 64.9108C106.81 64.395 106.995 63.8751 107.06 63.7557C107.125 63.6363 107.178 63.4006 107.178 63.2318C107.178 63.063 107.238 62.8901 107.311 62.8476C107.383 62.8051 107.443 62.6082 107.443 62.41C107.443 62.2118 107.496 62.0186 107.56 61.9808C107.625 61.943 107.71 61.7288 107.749 61.5047C107.788 61.2806 107.887 60.8439 107.969 60.5344C108.275 59.3772 108.583 58.0002 109.047 55.7204C109.388 54.042 109.833 50.6369 110.078 47.8429C110.336 44.8804 110.265 30.836 109.987 30.0889C109.577 28.9845 108.564 28.1799 106.653 27.4403C105.708 27.0739 102.54 25.5322 101.919 25.1358C101.606 24.9364 101.326 24.7732 101.296 24.7732C101.266 24.7732 100.986 24.6028 100.675 24.3946C100.363 24.1864 99.7516 23.7816 99.3155 23.495C98.8794 23.2083 98.443 22.8995 98.3459 22.8088C98.2488 22.7182 97.9531 22.49 97.6891 22.3018C96.2973 21.3112 93.5185 18.6788 92.3777 17.2708C92.1273 16.9614 91.8878 16.68 91.8461 16.6456C91.8045 16.6113 91.6274 16.3862 91.4527 16.1455C91.2779 15.9048 91.0978 15.6797 91.0526 15.6453C90.9224 15.5466 89.8669 14.0423 89.8669 13.9554C89.8669 13.9126 89.6987 13.6422 89.4929 13.3546C89.2871 13.067 88.8262 12.2783 88.4687 11.6019C87.6633 10.0777 87.0389 9.38494 86.063 8.93167L85.3077 8.58156L81.4754 8.57531C79.3676 8.57187 73.6743 8.58625 68.8234 8.60719ZM57.0278 19.4028C56.8497 19.4793 56.9796 19.4919 57.4242 19.4406C57.7877 19.3987 58.1098 19.3437 58.1402 19.318C58.2558 19.2202 57.2792 19.2946 57.0278 19.4028ZM55.7724 19.6466C55.5097 19.8073 55.8398 19.8073 56.2349 19.6466L56.4992 19.5391L56.2349 19.5322C56.0895 19.5284 55.8814 19.58 55.7724 19.6466ZM52.0359 20.9808C51.5436 21.2293 51.1604 21.4515 51.1848 21.4743C51.2089 21.4972 51.6711 21.294 52.2123 21.0223C52.7531 20.7507 53.136 20.5287 53.0633 20.5287C52.9906 20.5291 52.5284 20.7326 52.0359 20.9808ZM50.2205 21.977C47.7242 23.5428 45.5714 25.9057 44.1205 28.6732C43.9041 29.0855 43.7597 29.4534 43.7993 29.4912C43.839 29.5287 43.9358 29.3968 44.0141 29.198C44.8651 27.0383 47.1863 24.2868 49.606 22.5694C51.095 21.5125 51.0821 21.5222 51.0021 21.5222C50.9711 21.5222 50.6192 21.7269 50.2205 21.977ZM59.3734 22.982L60.0012 23.0358V34.3474V45.6591L53.2021 45.6257C49.4626 45.6072 46.4479 45.6347 46.5028 45.6866C46.5576 45.7385 52.6946 45.7666 60.1406 45.7491L73.6786 45.7173L73.7206 40.4031C73.7665 34.571 73.6994 33.6985 73.0641 31.8488C71.2583 26.5925 66.3361 23.1249 60.4637 22.9726C59.5188 22.9482 59.0282 22.9523 59.3734 22.982ZM57.4242 23.1477L57.0278 23.243L57.4242 23.2493C57.6423 23.2524 57.9396 23.2068 58.085 23.1477L58.3493 23.0402L58.085 23.0461C57.9396 23.0495 57.6423 23.0952 57.4242 23.1477ZM56.301 23.3978L55.9706 23.4978L56.301 23.5084C56.4827 23.5144 56.7205 23.4643 56.8296 23.3978C57.082 23.2433 56.8104 23.2433 56.301 23.3978ZM54.8473 23.8767C52.9642 24.6378 50.9635 25.9964 49.8197 27.2909C49.046 28.1664 48.7149 28.6241 49.378 27.902C51.129 25.9939 54.4314 23.7791 55.5332 23.7738C55.6561 23.7735 55.7935 23.7166 55.8384 23.6478C55.963 23.4572 55.7826 23.4987 54.8473 23.8767ZM48.4711 28.9995C47.7859 29.9795 47.0099 31.641 47.3234 31.4578C47.3915 31.4181 47.447 31.3137 47.447 31.2262C47.447 31.0327 48.2478 29.4947 48.6423 28.9307C48.7985 28.7072 48.899 28.5244 48.8649 28.5244C48.8312 28.5244 48.6542 28.7382 48.4711 28.9995ZM43.0296 31.3468C42.9807 31.53 42.9708 31.7079 43.0071 31.7423C43.0434 31.7766 43.1128 31.655 43.1617 31.4719C43.2103 31.2884 43.2202 31.1105 43.1838 31.0761C43.1475 31.0417 43.0781 31.1633 43.0296 31.3468ZM46.9508 32.1183C46.7558 32.7638 46.6138 33.5819 46.7717 33.1508C47.0588 32.3678 47.22 31.7688 47.1592 31.7113C47.1225 31.6769 47.0291 31.8601 46.9508 32.1183ZM42.7484 32.4562C42.6985 32.7072 42.6876 32.9404 42.724 32.9748C42.7603 33.0092 42.8307 32.8323 42.8806 32.5813C42.9301 32.3302 42.9413 32.0967 42.905 32.0624C42.8687 32.028 42.798 32.2052 42.7484 32.4562ZM42.5089 33.7873C42.463 34.0045 42.4382 36.7498 42.4537 39.8873L42.4818 45.5922L42.5528 39.5278C42.5918 36.1924 42.6166 33.4475 42.608 33.4278C42.5994 33.4081 42.5548 33.57 42.5089 33.7873ZM46.4545 34.4353C46.404 34.9454 46.3871 35.47 46.4175 35.601C46.4479 35.7319 46.519 35.3428 46.5758 34.7363C46.6329 34.1296 46.6495 33.605 46.6128 33.5703C46.5761 33.5356 46.5051 33.9248 46.4545 34.4353ZM36.9784 45.7573C36.8536 45.8042 37.8348 45.8267 39.1589 45.8076C42.6004 45.7579 42.9311 45.6988 39.8484 45.6844C38.3948 45.6779 37.1033 45.7107 36.9784 45.7573ZM35.95 46.1652L35.6196 46.42L36.0821 46.209C36.6477 45.9511 36.7079 45.9039 36.4677 45.9076C36.3646 45.9092 36.1317 46.0252 35.95 46.1652ZM34.9321 46.8979C34.6397 47.169 34.2585 47.6613 34.085 47.992L33.7695 48.5932V62.8476V77.1021L34.0728 77.6785C34.3701 78.244 35.4838 79.4153 35.7243 79.4153C35.7914 79.4153 35.5496 79.1627 35.1865 78.8539C34.8238 78.5453 34.386 78.0249 34.2142 77.6973L33.9017 77.1021L33.866 63.1005C33.825 47.1633 33.7497 48.2999 34.9285 47.0796C35.6913 46.2899 35.693 46.1921 34.9321 46.8979ZM36.5414 79.7854C36.5883 79.857 36.7815 79.9155 36.9708 79.9155C37.3851 79.9155 37.3372 79.8554 36.8308 79.7404C36.5853 79.6848 36.4855 79.7001 36.5414 79.7854Z" fill="#14B8A6"/>
<path fill-rule="evenodd" clip-rule="evenodd" d="M25.9996 0.199319C24.9044 0.739488 24.4677 1.49285 24.1839 3.32905C24.099 3.87922 23.9761 4.42721 23.9107 4.54662C23.8453 4.66603 23.7917 4.8736 23.7917 5.00801C23.7917 5.14243 23.7323 5.28716 23.6596 5.32968C23.5869 5.37219 23.5274 5.56913 23.5274 5.76731C23.5274 5.9655 23.468 6.16244 23.3953 6.20495C23.3226 6.24746 23.2631 6.39157 23.2631 6.52505C23.2631 6.65853 23.2037 6.76763 23.131 6.76763C23.0583 6.76763 22.9988 6.93643 22.9988 7.14274C22.9988 7.34906 22.9394 7.51786 22.8667 7.51786C22.794 7.51786 22.7345 7.6304 22.7345 7.76794C22.7345 7.90548 22.6899 8.01833 22.6354 8.01896C22.5148 8.02021 22.2059 8.62727 22.2059 8.86297C22.2059 8.95644 22.1465 8.99833 22.0738 8.95581C22.0011 8.9133 21.9416 8.99426 21.9416 9.13587C21.9416 9.27748 21.8822 9.39345 21.8095 9.39345C21.7368 9.39345 21.6773 9.46722 21.6773 9.55756C21.6773 9.64759 21.5584 9.84234 21.413 9.98989C21.2677 10.1374 21.1488 10.3447 21.1488 10.45C21.1488 10.5554 21.0298 10.712 20.8844 10.798C20.7391 10.8839 20.6202 11.0255 20.6202 11.1127C20.6202 11.2 20.4417 11.4478 20.2237 11.6638C20.0057 11.8799 19.8273 12.1087 19.8273 12.1731C19.8273 12.2372 19.3813 12.7117 18.8361 13.2275C18.291 13.7433 17.845 14.2262 17.845 14.3009C17.845 14.3756 17.8083 14.4022 17.7637 14.3597C17.7191 14.3175 17.3957 14.5613 17.0455 14.9017C16.6953 15.2418 16.3435 15.5204 16.2635 15.5204C16.1839 15.5204 16.0848 15.6045 16.0432 15.7073C16.0012 15.8098 15.9249 15.8692 15.873 15.8389C15.8212 15.8086 15.6953 15.8933 15.5935 16.0271C15.4914 16.1612 15.3467 16.2706 15.2721 16.2709C15.1971 16.2709 14.9278 16.4397 14.6734 16.6457C14.419 16.8517 14.1366 17.0205 14.0457 17.0205C13.9549 17.0208 13.8805 17.0771 13.8805 17.1459C13.8805 17.2147 13.8046 17.2709 13.7114 17.2709C13.6186 17.2709 13.4567 17.3835 13.3519 17.521C13.2472 17.6585 13.0556 17.7711 12.9264 17.7711C12.7969 17.7711 12.6912 17.8273 12.6912 17.8961C12.6912 17.9649 12.5723 18.0212 12.4269 18.0212C12.2815 18.0212 12.1626 18.068 12.1626 18.1252C12.1626 18.1825 11.9693 18.2906 11.7331 18.3653C11.4969 18.44 10.9171 18.6551 10.4447 18.8433C9.97223 19.0312 9.51136 19.1859 9.42051 19.1868C9.32965 19.1875 9.25532 19.235 9.25532 19.2925C9.25532 19.3497 9.11028 19.3966 8.93287 19.3966C8.75546 19.3966 8.57343 19.4529 8.5285 19.5216C8.48357 19.5904 8.30153 19.6467 8.12412 19.6467C7.94671 19.6467 7.80168 19.7029 7.80168 19.7717C7.80168 19.8405 7.58991 19.8967 7.33123 19.8967C7.0514 19.8967 6.89414 19.9474 6.94271 20.0218C6.99325 20.099 6.7653 20.1468 6.34803 20.1468C5.93077 20.1468 5.70282 20.1946 5.75336 20.2719C5.80391 20.3494 5.55646 20.3969 5.10055 20.3969C4.6965 20.3969 4.3658 20.4532 4.3658 20.5219C4.3658 20.5926 3.99148 20.647 3.50683 20.647C3.02217 20.647 2.64786 20.7014 2.64786 20.772C2.64786 20.8408 2.46946 20.8971 2.25141 20.8971C2.03336 20.8971 1.85496 20.9533 1.85496 21.0221C1.85496 21.0909 1.76378 21.1471 1.65244 21.1471C1.27516 21.1471 0.269172 22.2828 0.269172 22.7086C0.269172 22.8127 0.209704 22.8977 0.137022 22.8977C-0.0456741 22.8977 -0.0456741 48.8614 0.137022 48.9684C0.213008 49.0127 0.269172 49.6758 0.269172 50.5313C0.269172 51.3869 0.325335 52.0499 0.401321 52.0943C0.474003 52.1368 0.53347 52.5792 0.53347 53.0771C0.53347 53.5751 0.589634 54.0359 0.658021 54.1012C0.726739 54.1665 0.795125 54.6261 0.810323 55.1222C0.825189 55.6186 0.88796 55.9949 0.94974 55.959C1.01152 55.9227 1.06207 56.2622 1.06207 56.7133C1.06207 57.1769 1.11955 57.5335 1.19422 57.5335C1.2669 57.5335 1.32637 57.8318 1.32637 58.1962C1.32637 58.5607 1.38253 58.9124 1.45158 58.9777C1.52029 59.0431 1.59099 59.3322 1.60883 59.6204C1.62667 59.9087 1.68945 60.1162 1.74825 60.0821C1.80706 60.0478 1.85496 60.3322 1.85496 60.7145C1.85496 61.0968 1.90848 61.4097 1.9739 61.4097C2.03931 61.4097 2.12223 61.6489 2.15858 61.9412C2.25736 62.7367 2.32409 63.0506 2.50348 63.5642C2.59335 63.8208 2.62903 64.0881 2.58343 64.1581C2.53751 64.2281 2.56295 64.2857 2.63993 64.2857C2.71691 64.2857 2.78001 64.5107 2.78001 64.7858C2.78001 65.0609 2.83287 65.286 2.89762 65.286C2.96237 65.286 3.05323 65.497 3.09981 65.7549C3.3053 66.8962 3.34395 67.0365 3.45529 67.0365C3.52004 67.0365 3.5729 67.1941 3.5729 67.3866C3.5729 67.5792 3.62213 67.7902 3.68193 67.8555C3.79888 67.9827 4.09787 68.8343 4.15006 69.1897C4.16757 69.3082 4.22341 69.4441 4.27395 69.492C4.3245 69.5398 4.3658 69.7102 4.3658 69.8708C4.3658 70.0312 4.42526 70.1625 4.49795 70.1625C4.57063 70.1625 4.6301 70.3347 4.6301 70.5451C4.6301 70.768 4.68527 70.8952 4.76224 70.8502C4.83724 70.8064 4.89439 70.9121 4.89439 71.0947C4.89439 71.4041 4.93536 71.5176 5.27036 72.1303C5.35427 72.2841 5.42299 72.5185 5.42299 72.6511C5.42299 72.7839 5.47684 72.9112 5.54259 72.9343C5.60833 72.9571 5.68266 73.1165 5.70777 73.2885C5.73288 73.4604 5.7831 73.6292 5.81944 73.6636C5.97273 73.8086 6.21589 74.2988 6.21589 74.4629C6.21589 74.6158 6.39726 75.0128 6.89315 75.944C6.95691 76.0634 7.00878 76.2463 7.00878 76.3504C7.00878 76.4545 7.06825 76.5395 7.14093 76.5395C7.21361 76.5395 7.27308 76.652 7.27308 76.7896C7.27308 76.9271 7.33255 77.0396 7.40523 77.0396C7.47791 77.0396 7.53738 77.2085 7.53738 77.4148C7.53738 77.6211 7.59024 77.7899 7.65532 77.7899C7.72007 77.7899 7.81291 77.9406 7.8618 78.125C7.9814 78.5758 9.53415 81.5926 9.67357 81.6452C9.73436 81.6683 9.78392 81.7949 9.78392 81.9265C9.78392 82.0584 9.84338 82.1663 9.91607 82.1663C9.98875 82.1663 10.0482 82.2788 10.0482 82.4163C10.0482 82.5539 10.1077 82.6664 10.1804 82.6664C10.253 82.6664 10.3125 82.779 10.3125 82.9165C10.3125 83.054 10.372 83.1666 10.4447 83.1666C10.5173 83.1666 10.5768 83.2791 10.5768 83.4166C10.5768 83.5542 10.6363 83.6667 10.709 83.6667C10.7816 83.6667 10.8411 83.7793 10.8411 83.9168C10.8411 84.0543 10.887 84.1669 10.9429 84.1669C10.999 84.1669 11.1923 84.4342 11.3723 84.7608C11.5527 85.0875 11.7447 85.3735 11.7992 85.3963C11.8537 85.4195 11.8983 85.5179 11.8983 85.6152C11.8983 85.7127 11.9578 85.7924 12.0305 85.7924C12.1031 85.7924 12.1626 85.8662 12.1626 85.9565C12.1626 86.0465 12.2815 86.2413 12.4269 86.3888C12.5723 86.5364 12.6912 86.7439 12.6912 86.8499C12.6912 86.9559 12.7381 87.0428 12.7956 87.0428C12.8531 87.0428 13.1355 87.4926 13.4233 88.0422C13.7111 88.5917 13.9912 89.0418 14.0457 89.0425C14.1002 89.0431 14.1448 89.1172 14.1448 89.2075C14.1448 89.2976 14.2489 89.4804 14.3761 89.6139C14.5033 89.7471 14.6916 90.0109 14.795 90.2C14.8981 90.3891 15.0319 90.5439 15.0924 90.5439C15.1525 90.5439 15.202 90.6158 15.202 90.7039C15.202 90.7918 15.321 90.9449 15.4663 91.044C15.6117 91.1431 15.7306 91.3119 15.7306 91.4192C15.7306 91.5264 15.8496 91.6952 15.9949 91.7943C16.1403 91.8934 16.2592 92.0381 16.2592 92.1159C16.2592 92.1938 16.4376 92.4339 16.6557 92.6499C16.8737 92.8659 17.0521 93.115 17.0521 93.2035C17.0521 93.2919 17.1711 93.4457 17.3164 93.5448C17.4618 93.6439 17.581 93.783 17.5814 93.8537C17.5817 93.9246 17.7601 94.1622 17.9778 94.382C18.1955 94.6017 18.3736 94.8409 18.3736 94.9134C18.3736 94.9859 18.4331 95.0453 18.5058 95.0453C18.5784 95.0453 18.6379 95.1162 18.6379 95.2028C18.6379 95.2894 18.7568 95.4304 18.9022 95.5164C19.0476 95.6023 19.1665 95.7565 19.1665 95.859C19.1665 95.9618 19.2359 96.0456 19.3208 96.0456C19.4054 96.0456 19.4391 96.0794 19.3955 96.1206C19.3519 96.1619 19.5154 96.3841 19.7589 96.6145C20.0024 96.8449 20.2406 97.1497 20.2885 97.2916C20.336 97.4335 20.4302 97.5173 20.4976 97.4779C20.565 97.4385 20.6202 97.4517 20.6205 97.5073C20.6205 97.563 20.7989 97.8055 21.0166 98.0462C21.2343 98.2869 21.4127 98.5292 21.4127 98.5845C21.413 98.6399 21.7698 99.0165 22.2059 99.4217C22.642 99.8268 22.9988 100.218 22.9988 100.29C22.9988 100.363 23.0484 100.422 23.1085 100.422C23.169 100.422 23.2968 100.561 23.393 100.73C23.4888 100.9 23.6176 101.009 23.6794 100.973C23.7412 100.937 23.7917 100.958 23.7917 101.019C23.7917 101.37 29.5399 106.799 29.9109 106.799C29.9856 106.799 30.011 106.833 29.9674 106.874C29.864 106.972 30.7388 107.799 30.9453 107.799C31.0325 107.799 31.0672 107.834 31.0223 107.877C30.9235 107.97 31.1049 108.144 31.7207 108.549C31.9751 108.716 32.4003 109.059 32.6659 109.309C32.9315 109.56 33.3478 109.897 33.5909 110.057C33.8341 110.217 34.1975 110.506 34.3984 110.7C34.5992 110.893 34.8325 111.065 34.917 111.082C35.0016 111.099 35.2335 111.284 35.4328 111.492C35.632 111.701 35.9637 111.954 36.1695 112.055C36.3756 112.156 36.7017 112.393 36.8943 112.582C37.0873 112.771 37.3013 112.926 37.3704 112.926C37.4394 112.926 37.6694 113.081 37.8815 113.27C38.0933 113.459 38.4292 113.693 38.6278 113.791C38.8264 113.889 38.9889 114.015 38.9889 114.073C38.9889 114.129 39.0817 114.176 39.195 114.176C39.3084 114.176 39.3642 114.233 39.3193 114.301C39.2743 114.37 39.3308 114.426 39.4448 114.426C39.5588 114.426 39.8386 114.595 40.0669 114.801C40.2952 115.008 40.5489 115.177 40.6312 115.177C40.7134 115.177 40.8664 115.289 40.9711 115.427C41.0759 115.564 41.2103 115.677 41.2701 115.677C41.3299 115.677 41.504 115.787 41.6573 115.922C41.8106 116.058 41.987 116.138 42.0491 116.102C42.1116 116.066 42.1981 116.124 42.2417 116.232C42.2854 116.339 42.4036 116.427 42.5051 116.427C42.6061 116.427 42.6891 116.487 42.6891 116.56C42.6891 116.632 42.7489 116.657 42.8222 116.614C42.8952 116.571 42.9881 116.617 43.028 116.716C43.0683 116.815 43.3356 116.996 43.622 117.118C43.9085 117.24 44.1427 117.388 44.1427 117.446C44.1427 117.505 44.2484 117.552 44.3779 117.552C44.5071 117.552 44.6987 117.665 44.8035 117.802C44.9082 117.94 45.0998 118.053 45.229 118.053C45.3585 118.053 45.4642 118.109 45.4642 118.178C45.4642 118.246 45.5527 118.303 45.6608 118.303C45.8418 118.303 46.1507 118.5 46.5928 118.897C46.6886 118.982 46.8329 119.053 46.9139 119.053C46.9948 119.053 47.1888 119.165 47.3447 119.303C47.5006 119.44 47.7064 119.553 47.8016 119.553C47.8971 119.553 47.975 119.609 47.975 119.678C47.975 119.747 48.0827 119.803 48.2146 119.803C48.346 119.803 48.5816 119.916 48.7375 120.053C48.8935 120.191 49.0831 120.303 49.1588 120.303C49.2344 120.303 49.2965 120.359 49.2965 120.428C49.2965 120.497 49.4155 120.553 49.5608 120.553C49.7062 120.553 49.8251 120.61 49.8251 120.678C49.8251 120.747 49.9199 120.803 50.0356 120.803C50.1512 120.803 50.397 120.916 50.582 121.053C50.7667 121.191 51.0069 121.304 51.1159 121.304C51.2249 121.304 51.4099 121.405 51.5275 121.529C51.7568 121.771 52.7473 122.24 53.3125 122.374C53.5022 122.419 53.6575 122.496 53.6575 122.544C53.6575 122.593 53.8656 122.71 54.12 122.804C54.3744 122.898 54.5825 123.022 54.5825 123.078C54.5825 123.133 54.7051 123.179 54.8547 123.179C55.0044 123.179 55.09 123.235 55.045 123.304C55.0001 123.373 55.0857 123.429 55.2353 123.429C55.385 123.429 55.5075 123.485 55.5075 123.554C55.5075 123.623 55.5521 123.667 55.6067 123.651C55.755 123.61 56.5647 123.976 56.5647 124.085C56.5647 124.137 56.6837 124.179 56.829 124.179C56.9744 124.179 57.0933 124.222 57.0933 124.274C57.0933 124.326 57.2866 124.448 57.5228 124.545C57.759 124.642 57.9946 124.783 58.0465 124.857C58.1889 125.061 61.8778 125.041 61.9498 124.836C61.9802 124.75 62.119 124.68 62.2581 124.68C62.3975 124.68 62.5115 124.623 62.5115 124.555C62.5115 124.486 62.6007 124.429 62.7097 124.429C62.8187 124.429 62.9079 124.373 62.9079 124.304C62.9079 124.236 63.0268 124.179 63.1722 124.179C63.3176 124.179 63.4365 124.123 63.4365 124.054C63.4365 123.986 63.5554 123.929 63.7008 123.929C63.8462 123.929 63.9654 123.887 63.9661 123.836C63.9674 123.723 64.6073 123.429 64.8505 123.429C64.945 123.429 65.0223 123.373 65.0223 123.304C65.0223 123.235 65.1449 123.179 65.2945 123.179C65.4442 123.179 65.5297 123.123 65.4848 123.054C65.4399 122.985 65.5142 122.929 65.6503 122.929C65.7861 122.929 66.0253 122.816 66.1812 122.679C66.3372 122.541 66.5565 122.429 66.6685 122.429C66.7805 122.429 66.8724 122.374 66.8724 122.308C66.8724 122.241 66.9616 122.219 67.0706 122.259C67.1796 122.298 67.2688 122.268 67.2688 122.192C67.2688 122.116 67.3805 122.054 67.5169 122.054C67.6534 122.054 67.8404 121.968 67.9322 121.863C68.0241 121.758 68.1278 121.699 68.1625 121.732C68.1968 121.765 68.3121 121.71 68.4185 121.609C68.5246 121.509 68.6663 121.458 68.733 121.497C68.8001 121.536 68.8546 121.509 68.8546 121.436C68.8546 121.363 68.9167 121.304 68.9924 121.304C69.068 121.304 69.2577 121.191 69.4136 121.053C69.5695 120.916 69.8051 120.803 69.9366 120.803C70.0684 120.803 70.1761 120.747 70.1761 120.678C70.1761 120.61 70.295 120.553 70.4404 120.553C70.5858 120.553 70.7047 120.497 70.7047 120.428C70.7047 120.359 70.8273 120.303 70.9769 120.303C71.1266 120.303 71.2122 120.247 71.1672 120.178C71.1223 120.109 71.1781 120.053 71.2914 120.053C71.4048 120.053 71.4976 119.997 71.4976 119.928C71.4976 119.859 71.6165 119.803 71.7619 119.803C71.9073 119.803 72.0262 119.747 72.0262 119.678C72.0262 119.609 72.1488 119.553 72.2984 119.553C72.4481 119.553 72.5337 119.497 72.4887 119.428C72.4438 119.359 72.5294 119.303 72.679 119.303C72.8287 119.303 72.9512 119.247 72.9512 119.178C72.9512 119.109 73.0441 119.053 73.1574 119.053C73.2707 119.053 73.3265 118.997 73.2816 118.928C73.2367 118.859 73.3223 118.803 73.4719 118.803C73.6216 118.803 73.7441 118.746 73.7441 118.678C73.7441 118.609 73.8185 118.553 73.9093 118.552C74.0002 118.552 74.2826 118.384 74.537 118.178C74.7914 117.972 75.0739 117.803 75.1647 117.803C75.2556 117.802 75.3309 117.76 75.3319 117.709C75.3332 117.657 75.6306 117.477 75.9927 117.309C76.3551 117.141 76.6514 116.948 76.6514 116.882C76.6514 116.815 76.6874 116.795 76.7317 116.836C76.7756 116.878 76.9392 116.798 77.0951 116.658C77.2507 116.519 77.631 116.291 77.9399 116.152C78.2488 116.013 78.5015 115.849 78.5015 115.788C78.5015 115.727 78.5775 115.677 78.6707 115.677C78.7635 115.677 78.9254 115.564 79.0301 115.427C79.1348 115.289 79.3027 115.177 79.4028 115.177C79.5029 115.177 79.7513 115.008 79.9551 114.801C80.159 114.595 80.4074 114.426 80.5075 114.426C80.6076 114.426 80.7755 114.314 80.8802 114.176C80.9849 114.039 81.1379 113.926 81.2201 113.926C81.3024 113.926 81.5561 113.757 81.7844 113.551C82.0127 113.345 82.2532 113.176 82.3193 113.176C82.3854 113.176 82.7326 112.909 83.0914 112.582C83.4502 112.255 83.8278 111.97 83.9309 111.948C84.0336 111.926 84.2698 111.771 84.4555 111.604C84.6412 111.437 84.8361 111.3 84.8883 111.3C84.9408 111.3 85.2514 111.047 85.5784 110.738C85.9055 110.428 86.225 110.175 86.2881 110.175C86.3512 110.175 86.7952 109.809 87.2746 109.362C87.7539 108.915 88.1973 108.55 88.2591 108.55C88.3212 108.55 88.7702 108.184 89.2568 107.737C89.7434 107.29 90.1072 106.924 90.0652 106.924C89.9899 106.924 90.8145 106.227 91.1743 105.986C91.616 105.691 93.4971 103.866 93.4641 103.766C93.4443 103.704 93.4836 103.687 93.5517 103.727C93.6197 103.767 93.8708 103.56 94.1093 103.267C94.3482 102.975 94.9184 102.378 95.3766 101.942C95.8345 101.505 96.2095 101.088 96.2095 101.014C96.2095 100.941 96.2482 100.917 96.2954 100.962C96.3826 101.044 97.0021 100.435 97.0024 100.266C97.0024 100.215 97.2997 99.8859 97.6631 99.5345C98.0266 99.1835 98.3239 98.8424 98.3239 98.7765C98.3239 98.7105 98.3926 98.6968 98.4765 98.7458C98.5684 98.7996 98.5931 98.7802 98.539 98.6974C98.4894 98.6214 98.7177 98.3054 99.0471 97.9937C99.3761 97.6824 99.6454 97.3385 99.6454 97.2294C99.6454 97.1203 99.7048 97.0659 99.7775 97.1084C99.8502 97.151 99.9097 97.1181 99.9097 97.0356C99.9097 96.9531 100.083 96.7289 100.294 96.5376C100.506 96.3463 100.657 96.1691 100.63 96.1434C100.603 96.1181 100.817 95.8534 101.104 95.5555C101.392 95.2575 101.628 94.959 101.628 94.8921C101.628 94.8252 101.791 94.6208 101.991 94.4379C102.191 94.2547 102.371 94.0315 102.39 93.9418C102.41 93.8521 102.544 93.6592 102.688 93.5133C102.832 93.367 102.949 93.1963 102.949 93.1338C102.949 93.0712 103.113 92.8702 103.313 92.6874C103.512 92.5042 103.692 92.281 103.712 92.1913C103.731 92.1016 103.865 91.9087 104.009 91.7627C104.153 91.6164 104.271 91.4357 104.271 91.3607C104.271 91.2857 104.39 91.1431 104.535 91.044C104.68 90.9449 104.799 90.7918 104.799 90.7039C104.799 90.6158 104.859 90.5439 104.931 90.5439C105.004 90.5439 105.063 90.4595 105.063 90.3563C105.063 90.2532 105.123 90.1688 105.196 90.1688C105.268 90.1688 105.313 90.1256 105.295 90.0725C105.277 90.0197 105.396 89.8402 105.559 89.6739C105.723 89.5076 105.856 89.3022 105.856 89.2178C105.856 89.1334 105.903 89.0456 105.96 89.0225C106.144 88.9481 106.655 88.0275 106.577 87.9084C106.535 87.8449 106.554 87.793 106.619 87.793C106.684 87.793 106.821 87.6383 106.924 87.4492C107.028 87.26 107.216 86.9962 107.343 86.863C107.47 86.7296 107.574 86.5467 107.574 86.4567C107.574 86.3663 107.634 86.2925 107.706 86.2925C107.779 86.2925 107.839 86.18 107.839 86.0425C107.839 85.9049 107.898 85.7924 107.971 85.7924C108.043 85.7924 108.103 85.708 108.103 85.6048C108.103 85.5017 108.151 85.4173 108.21 85.4173C108.269 85.4173 108.399 85.2228 108.497 84.9853C108.596 84.7477 108.726 84.5823 108.786 84.6176C108.846 84.653 108.896 84.5661 108.896 84.4245C108.896 84.2829 108.955 84.1669 109.028 84.1669C109.101 84.1669 109.16 84.0543 109.16 83.9168C109.16 83.7793 109.22 83.6667 109.292 83.6667C109.365 83.6667 109.424 83.5542 109.424 83.4166C109.424 83.2791 109.484 83.1666 109.557 83.1666C109.629 83.1666 109.689 83.054 109.689 82.9165C109.689 82.779 109.748 82.6664 109.821 82.6664C109.894 82.6664 109.953 82.5539 109.953 82.4163C109.953 82.2788 110.001 82.1663 110.06 82.1663C110.197 82.1663 111.01 80.6248 111.01 80.3638C111.01 80.2547 111.07 80.1656 111.142 80.1656C111.215 80.1656 111.275 80.0812 111.275 79.9781C111.275 79.8749 111.334 79.7905 111.407 79.7905C111.479 79.7905 111.539 79.678 111.539 79.5404C111.539 79.4029 111.608 79.2904 111.693 79.2904C111.778 79.2904 111.81 79.2547 111.764 79.2113C111.718 79.1678 111.75 79.0131 111.836 78.8674C111.922 78.7217 111.999 78.5745 112.008 78.5401C112.049 78.3819 112.23 77.9568 112.341 77.7602C112.409 77.6408 112.464 77.4298 112.464 77.2913C112.464 77.1528 112.523 77.0396 112.596 77.0396C112.669 77.0396 112.728 76.9271 112.728 76.7896C112.728 76.652 112.788 76.5395 112.86 76.5395C112.933 76.5395 112.992 76.427 112.992 76.2894C112.992 76.1519 113.052 76.0393 113.125 76.0393C113.197 76.0393 113.257 75.8671 113.257 75.6567C113.257 75.4338 113.312 75.3066 113.389 75.3516C113.462 75.3941 113.521 75.3163 113.521 75.1788C113.521 75.0412 113.581 74.894 113.653 74.8515C113.726 74.8089 113.785 74.6367 113.785 74.4688C113.785 74.301 113.845 74.1637 113.918 74.1637C113.99 74.1637 114.05 74.0512 114.05 73.9137C114.05 73.7761 114.109 73.6636 114.182 73.6636C114.254 73.6636 114.314 73.4948 114.314 73.2885C114.314 73.0822 114.373 72.9134 114.446 72.9134C114.519 72.9134 114.578 72.7761 114.578 72.6083C114.578 72.4404 114.638 72.2682 114.71 72.2256C114.783 72.1831 114.843 72.039 114.843 71.9055C114.843 71.7721 114.902 71.663 114.975 71.663C115.047 71.663 115.107 71.4942 115.107 71.2878C115.107 71.0815 115.166 70.9127 115.239 70.9127C115.312 70.9127 115.371 70.7714 115.371 70.5986C115.371 70.4257 115.431 70.1725 115.503 70.0359C115.576 69.8993 115.695 69.6755 115.768 69.5389C115.84 69.4023 115.9 69.1806 115.9 69.0462C115.9 68.9118 115.948 68.7736 116.007 68.7392C116.066 68.7048 116.195 68.3075 116.295 67.8565C116.394 67.4057 116.524 67.0365 116.584 67.0365C116.644 67.0365 116.693 66.9396 116.693 66.8214C116.693 66.4413 117.013 65.286 117.119 65.286C117.175 65.286 117.221 65.0609 117.221 64.7858C117.221 64.5107 117.273 64.2857 117.336 64.2857C117.398 64.2857 117.446 64.1309 117.442 63.9418C117.438 63.7527 117.51 63.466 117.603 63.305C117.696 63.1437 117.736 62.8765 117.692 62.7111C117.647 62.5407 117.671 62.4101 117.747 62.4101C117.822 62.4101 117.882 62.185 117.882 61.9099C117.882 61.6348 117.941 61.4097 118.014 61.4097C118.087 61.4097 118.146 61.1284 118.146 60.7846C118.146 60.4407 118.2 60.1594 118.266 60.1594C118.38 60.1594 118.464 59.6855 118.624 58.1275C118.665 57.732 118.753 57.4085 118.819 57.4085C118.885 57.4085 118.939 57.099 118.939 56.7208C118.939 56.3425 118.999 56.0331 119.071 56.0331C119.149 56.0331 119.203 55.6139 119.203 55.0252C119.203 54.3854 119.252 54.0459 119.336 54.095C119.42 54.144 119.468 53.7836 119.468 53.1021C119.468 52.5135 119.521 52.0318 119.585 52.0318C119.649 52.0318 119.712 51.3707 119.724 50.5626C119.736 49.7545 119.802 49.0399 119.871 48.9746C120.047 48.8077 120.041 22.8977 119.864 22.8977C119.792 22.8977 119.732 22.7851 119.732 22.6476C119.732 22.5101 119.673 22.3975 119.6 22.3975C119.527 22.3975 119.468 22.3112 119.468 22.2059C119.468 21.9571 118.612 21.1471 118.349 21.1471C118.237 21.1471 118.146 21.0909 118.146 21.0221C118.146 20.9533 118.001 20.8971 117.824 20.8971C117.646 20.8971 117.464 20.8408 117.419 20.772C117.375 20.7032 116.958 20.647 116.494 20.647C116.031 20.647 115.614 20.5907 115.569 20.5219C115.524 20.4532 115.223 20.3969 114.901 20.3969C114.578 20.3969 114.314 20.3522 114.314 20.2975C114.314 20.2428 114.091 20.184 113.818 20.1668C113.546 20.1499 113.303 20.0821 113.279 20.0162C113.254 19.9505 113.031 19.8967 112.781 19.8967C112.346 19.8967 112.232 19.863 111.574 19.541C111.411 19.4616 111.158 19.3966 111.012 19.3966C110.866 19.3966 110.746 19.3509 110.746 19.2953C110.746 19.2393 110.449 19.1218 110.085 19.0337C109.722 18.9455 109.424 18.813 109.424 18.7389C109.424 18.6651 109.384 18.6423 109.336 18.6886C109.287 18.7345 109.107 18.6854 108.936 18.5791C108.764 18.4729 108.566 18.4197 108.496 18.461C108.425 18.5022 108.367 18.4766 108.367 18.4038C108.367 18.3309 108.248 18.2712 108.103 18.2712C107.958 18.2712 107.839 18.215 107.839 18.1462C107.839 18.0774 107.72 18.0212 107.574 18.0212C107.429 18.0212 107.31 17.9649 107.31 17.8961C107.31 17.8273 107.204 17.7711 107.075 17.7711C106.946 17.7711 106.754 17.6585 106.649 17.521C106.545 17.3835 106.366 17.2709 106.253 17.2709C106.14 17.2709 105.961 17.1584 105.856 17.0208C105.752 16.8833 105.599 16.7708 105.517 16.7708C105.435 16.7708 105.261 16.6582 105.13 16.5207C104.998 16.3831 104.837 16.2706 104.771 16.2706C104.706 16.2706 104.463 16.1021 104.23 15.8961C103.998 15.6901 103.756 15.5213 103.692 15.521C103.628 15.5207 103.172 15.1315 102.678 14.656C102.185 14.1806 101.746 13.8242 101.704 13.8642C101.662 13.9039 101.628 13.8395 101.628 13.7207C101.628 13.602 101.583 13.526 101.529 13.5516C101.474 13.5773 101.298 13.4682 101.137 13.3091C100.976 13.1499 100.873 13.0196 100.908 13.0196C100.943 13.0196 100.758 12.8236 100.498 12.5841C100.219 12.3281 100.063 12.088 100.119 12.0021C100.179 11.9105 100.157 11.8892 100.062 11.9449C99.9784 11.994 99.9097 11.9771 99.9097 11.9074C99.9097 11.8377 99.7577 11.637 99.572 11.4613C99.3867 11.2856 99.2645 11.0965 99.3008 11.0408C99.3371 10.9849 99.2513 10.8605 99.1098 10.7642C98.9681 10.6676 98.8525 10.5476 98.8525 10.4975C98.8525 10.4472 98.6741 10.1562 98.456 9.85047C98.238 9.54475 98.0596 9.20433 98.0596 9.09398C98.0596 8.98363 98.0001 8.89329 97.9274 8.89329C97.8548 8.89329 97.7953 8.78076 97.7953 8.64322C97.7953 8.50567 97.7358 8.39314 97.6631 8.39314C97.5905 8.39314 97.531 8.30873 97.531 8.20558C97.531 8.10242 97.4715 8.01802 97.3988 8.01802C97.3262 8.01802 97.2667 7.90548 97.2667 7.76794C97.2667 7.6304 97.2072 7.51786 97.1345 7.51786C97.0619 7.51786 97.0024 7.34906 97.0024 7.14274C97.0024 6.93643 96.9429 6.76763 96.8703 6.76763C96.7976 6.76763 96.7381 6.6304 96.7381 6.46253C96.7381 6.29467 96.6786 6.12242 96.6059 6.07991C96.5333 6.0374 96.4738 5.8339 96.4738 5.62758C96.4738 5.40939 96.4186 5.28466 96.3417 5.32968C96.263 5.37563 96.2095 5.22683 96.2095 4.96206C96.2095 4.7173 96.15 4.51692 96.0774 4.51692C96.0047 4.51692 95.9452 4.26372 95.9452 3.95425C95.9452 3.64477 95.9006 3.39126 95.8461 3.39094C95.7916 3.39032 95.7394 3.13055 95.7298 2.81358C95.7202 2.49629 95.6588 2.2012 95.593 2.15775C95.5276 2.11429 95.4797 1.99426 95.487 1.8911C95.5174 1.4594 94.5044 0.364371 93.8553 0.127421C93.2771 -0.0838949 26.4298 -0.0132478 25.9996 0.199319ZM84.7793 8.43534C86.6191 8.76732 87.4655 9.41314 88.4117 11.2065C90.7613 15.6589 94.4235 19.8155 98.7494 22.9399C99.6652 23.6013 102.133 25.1484 102.273 25.1484C102.342 25.1484 102.418 25.1922 102.443 25.2453C102.504 25.381 105.655 26.883 107.244 27.5344C108.68 28.1231 109.627 28.8717 109.945 29.6686C110.037 29.8989 110.167 30.2 110.235 30.3375C110.404 30.6792 110.28 47.5923 110.097 49.281C109.706 52.8852 109.113 56.5338 108.553 58.7839C108.27 59.919 107.711 62.0118 107.551 62.5351C107.478 62.7758 107.387 63.1562 107.349 63.3804C107.312 63.6045 107.228 63.8186 107.163 63.8565C107.099 63.8943 107.046 64.0353 107.046 64.1697C107.046 64.3041 106.992 64.5117 106.926 64.6311C106.861 64.7505 106.735 65.1015 106.647 65.411C106.559 65.7205 106.438 66.0862 106.379 66.2238C106.319 66.3613 106.195 66.6989 106.103 66.974C106.01 67.2491 105.887 67.5276 105.829 67.5929C105.771 67.6583 105.724 67.8136 105.724 67.9384C105.724 68.0631 105.672 68.2628 105.608 68.3822C105.543 68.5017 105.417 68.7683 105.328 68.9746C105.238 69.1809 105.112 69.4476 105.048 69.567C104.984 69.6864 104.931 69.8436 104.931 69.9168C104.931 69.9899 104.812 70.2825 104.667 70.567C104.522 70.8518 104.403 71.1287 104.403 71.1825C104.403 71.2363 104.261 71.5776 104.088 71.9406C103.914 72.3038 103.58 73.0228 103.345 73.5386C102.843 74.6389 101.083 78.074 100.975 78.165C100.934 78.1994 100.813 78.3963 100.706 78.6026C100.599 78.809 100.287 79.3351 100.012 79.7721C99.7379 80.2088 99.5132 80.5895 99.5132 80.618C99.5132 80.8218 96.6406 85.0834 95.267 86.9177C93.8682 88.7858 91.3662 91.8196 90.206 93.0547C88.0962 95.301 87.4592 95.9453 85.6376 97.6761C82.535 100.624 80.4553 102.384 77.1797 104.837C75.4019 106.168 69.8074 109.925 69.6026 109.925C69.5652 109.925 69.0859 110.206 68.5371 110.55C67.9884 110.894 67.4783 111.175 67.4039 111.175C67.3296 111.175 67.2688 111.225 67.2688 111.286C67.2688 111.347 67.1648 111.429 67.0376 111.47C66.8146 111.541 66.544 111.684 65.5509 112.254C64.0414 113.121 61.9753 114.14 61.259 114.369C59.7717 114.847 58.5794 114.43 53.6244 111.699C53.3519 111.548 52.926 111.317 52.6779 111.184C51.6015 110.606 48.2509 108.502 46.125 107.068C36.1298 100.327 26.5788 90.5404 20.9984 81.3222C20.5884 80.6455 20.2386 80.0653 19.9419 79.5717C19.2154 78.3619 17.7938 75.7014 17.1195 74.2888C15.7115 71.3391 15.6246 71.1453 14.9635 69.4748C14.7455 68.9246 14.466 68.2213 14.3421 67.9118C13.3209 65.3597 11.9148 60.5898 11.2461 57.4085C10.4688 53.7089 10.1467 51.3925 9.78689 46.9052C9.59891 44.5645 9.6075 31.0674 9.79713 30.5126C10.2663 29.1387 11.1137 28.2606 12.493 27.7192C21.0311 24.3675 27.6151 18.7339 31.5532 11.4106C32.3035 10.0155 33.0531 9.23559 34.0409 8.82233L34.7677 8.51818L46.2277 8.50036C52.5309 8.49067 62.2075 8.44565 67.7313 8.40001C73.2552 8.35469 79.1424 8.30623 80.8141 8.29279C82.9008 8.27591 84.1436 8.32061 84.7793 8.43534ZM58.1945 57.0387C54.9965 58.5067 54.7464 63.0015 57.7802 64.486L58.1505 64.6673V67.3219C58.1505 68.7821 58.2087 70.1691 58.28 70.4041C58.7511 71.9584 60.9772 72.1744 61.7123 70.7371C61.9594 70.2547 61.9829 69.9734 61.9829 67.5063V64.8039L62.6238 64.326C66.9021 61.1359 63.0556 54.8077 58.1945 57.0387Z" fill="#DEDEE4"/>
<path fill-rule="evenodd" clip-rule="evenodd" d="M34.395 8.81202C33.2754 9.15932 32.4775 9.99333 31.4458 11.8942C30.3906 13.8389 28.6343 16.3322 27.3505 17.7086C27.1579 17.9149 26.6884 18.4213 26.3068 18.8339C25.4683 19.7404 24.7062 20.4438 23.3933 21.5223C22.8491 21.9693 22.3741 22.365 22.3377 22.4019C21.9978 22.7458 19.2358 24.566 18.0068 25.2559C16.3854 26.1665 12.6786 27.8993 12.3525 27.8993C11.8659 27.8993 10.657 29.0252 10.2051 29.8999L9.84961 30.5876L9.85093 38.4651C9.85192 46.105 9.91767 47.8574 10.3253 51.094C10.5695 53.0337 10.9316 55.2728 11.2256 56.6583C11.291 56.9677 11.4096 57.5304 11.4889 57.9086C11.6458 58.6579 11.8421 59.4745 12.0301 60.1594C12.0961 60.4001 12.2085 60.8221 12.2795 61.0971C12.3509 61.3722 12.4764 61.8224 12.559 62.0975C12.6416 62.3726 12.7394 62.7383 12.7761 62.9102C12.8127 63.0821 12.8907 63.3354 12.9492 63.4729C13.008 63.6104 13.188 64.145 13.3493 64.6608C13.5108 65.1766 13.6965 65.6964 13.7616 65.8158C13.8266 65.9352 13.8802 66.1187 13.8802 66.2238C13.8802 66.3288 13.937 66.5123 14.0067 66.6317C14.0764 66.7511 14.3364 67.4116 14.5845 68.0993C15.0404 69.3632 16.0068 71.658 16.5978 72.8805C16.7749 73.2466 16.9196 73.5757 16.9196 73.612C16.9196 73.7139 19.1126 77.8849 19.6095 78.7277C19.8526 79.1403 20.217 79.7592 20.4192 80.1031C22.2138 83.1556 25.4964 87.7458 27.7965 90.4188C27.885 90.522 28.1652 90.8596 28.4186 91.1691C28.6716 91.4785 28.9105 91.7599 28.9485 91.7943C28.9868 91.8287 29.3436 92.2216 29.7414 92.667C32.5185 95.7783 37.0813 100.095 39.9172 102.296C40.315 102.604 40.6701 102.89 40.7065 102.931C40.8251 103.064 44.5926 105.866 45.0674 106.174C45.3218 106.339 45.5596 106.508 45.596 106.549C45.6323 106.59 45.8702 106.759 46.1246 106.924C46.379 107.089 46.6168 107.255 46.6532 107.293C46.6895 107.331 46.8131 107.418 46.928 107.487C47.043 107.555 47.8458 108.063 48.7121 108.614C49.5783 109.165 50.4954 109.736 50.7498 109.882C51.0042 110.028 51.5691 110.358 52.0052 110.614C52.7479 111.05 53.1721 111.288 53.9362 111.695C54.1097 111.787 54.2815 111.891 54.3178 111.926C54.4011 112.004 54.8897 112.268 55.5732 112.604C55.864 112.746 56.1316 112.896 56.1679 112.936C56.42 113.212 59.0825 114.301 59.5057 114.301H60.0002V97.176V80.0509L48.4041 80.0143L36.8081 79.9778L36.1473 79.6361C35.2847 79.19 34.4558 78.4091 34.0742 77.6836L33.7686 77.1022V62.8477V48.5932L34.0765 48.0074C35.0564 46.1425 36.2629 45.6548 39.8957 45.6548H42.4244V39.9418C42.4244 34.1343 42.4505 33.7445 42.9738 31.7129C44.7334 24.8849 51.2219 19.7364 58.7369 19.2059C59.314 19.165 59.8344 19.1037 59.8932 19.0693C59.952 19.0349 60.0002 16.6748 60.0002 13.8248V8.64322L47.413 8.66072C38.8848 8.6726 34.6867 8.72137 34.395 8.81202ZM57.8198 23.1721C57.529 23.2372 57.1085 23.3425 56.8855 23.4066C56.6621 23.4704 56.3536 23.5229 56.1993 23.5229C56.0453 23.5229 55.8825 23.5791 55.8375 23.6479C55.7926 23.7167 55.6552 23.7736 55.5323 23.7739C54.1639 23.7808 50.2331 26.6529 48.825 28.6748C48.1402 29.6586 47.3228 31.265 47.1206 32.0255C47.0751 32.1975 46.9578 32.6195 46.8606 32.9633C46.5078 34.2087 46.3684 36.7764 46.412 41.2159L46.4549 45.5923L53.2276 45.6248L60.0002 45.657V34.34V23.0227L59.1743 23.0387C58.72 23.0471 58.1105 23.1074 57.8198 23.1721Z" fill="#7ECED6"/>
<path fill-rule="evenodd" clip-rule="evenodd" d="M67.731 8.40006C62.2072 8.4457 52.5305 8.49071 46.2273 8.5004L34.7674 8.51822L34.0405 8.82238C33.0527 9.23563 32.3031 10.0156 31.5528 11.4107C28.0202 17.9802 22.4402 23.1259 15.0695 26.6108C14.161 27.0403 13.4847 27.3932 13.5663 27.3954C14.3424 27.4148 21.2151 23.5007 22.3377 22.3998C22.3741 22.3641 22.8492 21.9693 23.3933 21.5223C24.7062 20.4438 25.4684 19.7405 26.3068 18.834C26.6884 18.4213 27.1579 17.9149 27.3505 17.7086C28.6343 16.3322 30.3906 13.8389 31.4458 11.8943C32.5225 9.91053 33.3081 9.12122 34.5239 8.80175C34.9507 8.68952 41.2698 8.64545 60.1985 8.62263L85.3068 8.5923L86.0621 8.9371C87.0377 9.38318 87.6591 10.0715 88.4679 11.602C88.8253 12.2785 89.2862 13.0671 89.492 13.3547C89.6978 13.6423 89.866 13.9127 89.866 13.9555C89.866 14.0425 90.9215 15.5467 91.0517 15.6455C91.097 15.6798 91.277 15.9049 91.4518 16.1456C91.6266 16.3863 91.8036 16.6114 91.8453 16.6458C91.8869 16.6802 92.1264 16.9615 92.3768 17.271C93.5176 18.6789 96.2964 21.3113 97.6882 22.3019C97.9522 22.4901 98.2479 22.7183 98.345 22.8089C98.4421 22.8996 98.8786 23.2084 99.3147 23.4951C99.7508 23.7818 100.362 24.1866 100.674 24.3948C100.985 24.6029 101.265 24.7733 101.295 24.7733C101.325 24.7733 101.605 24.9365 101.918 25.1359C102.539 25.5323 105.707 27.074 106.653 27.4404C108.432 28.1294 109.334 28.7736 109.806 29.6942C109.952 29.9793 110.075 30.1237 110.078 30.0153C110.104 29.2306 108.881 28.2169 106.917 27.3954C105.203 26.6783 102.506 25.3816 102.442 25.2435C102.418 25.1913 102.342 25.1484 102.272 25.1484C102.133 25.1484 99.6649 23.6014 98.7491 22.9399C94.4232 19.8155 90.761 15.6589 88.4114 11.2066C87.0592 8.64357 86.035 8.25095 80.8138 8.29284C79.1421 8.30628 73.2548 8.35473 67.731 8.40006ZM12.2072 27.843C10.9676 28.4095 10.2263 29.2297 9.79447 30.5126C9.63886 30.9746 9.61408 45.0531 9.76606 46.5301C9.81198 46.9771 9.84964 43.573 9.84964 38.9653V30.5876L10.2051 29.8999C10.7334 28.8771 11.5289 28.1978 12.6908 27.7768C12.9452 27.6845 13.2099 27.562 13.2789 27.5042C13.5313 27.2929 13.1405 27.4166 12.2072 27.843ZM110.151 39.2525C110.151 44.1772 110.189 48.04 110.234 47.8371C110.354 47.3082 110.369 30.4263 110.25 30.3569C110.196 30.3251 110.151 34.3282 110.151 39.2525ZM9.92563 48.3535C9.93091 48.8981 9.98641 49.5967 10.0485 49.9062C10.1245 50.2819 10.1381 49.9703 10.0895 48.9684C10.0059 47.2472 9.91109 46.8912 9.92563 48.3535ZM109.979 48.9196C109.965 49.3054 109.921 49.8962 109.883 50.2325C109.826 50.7368 109.838 50.7905 109.954 50.5392C110.032 50.3713 110.075 49.7805 110.05 49.2263C110.017 48.4539 110 48.382 109.979 48.9196ZM10.2121 51.0941C10.2117 51.4379 10.2567 51.8881 10.3122 52.0944L10.4129 52.4695L10.4189 52.0319C10.4222 51.7912 10.3772 51.341 10.3188 51.0315L10.2131 50.4689L10.2121 51.0941ZM109.711 51.4692C109.697 51.6755 109.655 52.0694 109.617 52.3445C109.558 52.7799 109.568 52.8049 109.691 52.5367C109.769 52.3676 109.811 51.9737 109.785 51.6614C109.754 51.3082 109.726 51.2357 109.711 51.4692ZM10.4727 53.0947C10.4717 53.3698 10.5183 53.7355 10.5765 53.9074L10.6822 54.22L10.6878 53.9074C10.6908 53.7355 10.6442 53.3698 10.5841 53.0947L10.4747 52.5945L10.4727 53.0947ZM109.374 53.8252C109.318 54.1581 109.302 54.4592 109.34 54.4945C109.436 54.5855 109.591 53.7274 109.528 53.4511C109.499 53.3238 109.429 53.492 109.374 53.8252ZM10.735 54.7202C10.735 54.9265 10.7826 55.236 10.8408 55.4079C10.9435 55.7118 10.9465 55.7102 10.9465 55.3454C10.9465 55.1391 10.8989 54.8296 10.8408 54.6577C10.738 54.3538 10.735 54.3554 10.735 54.7202ZM109.1 55.3851C109.046 55.6821 109.033 55.955 109.072 55.9918C109.168 56.0828 109.334 55.2119 109.259 55.0081C109.226 54.9187 109.154 55.0881 109.1 55.3851ZM10.9954 56.1582C11.0017 56.6739 11.2098 57.2072 11.2147 56.7208C11.2167 56.5145 11.1675 56.2332 11.1051 56.0956C11.0017 55.8684 10.9917 55.874 10.9954 56.1582ZM108.831 56.7393C108.786 57.0044 108.697 57.4461 108.632 57.7211C108.566 57.9962 108.477 58.3901 108.433 58.5964C108.306 59.1872 108.13 59.9231 107.968 60.5345C107.886 60.844 107.787 61.2807 107.748 61.5048C107.709 61.729 107.624 61.9431 107.559 61.9809C107.495 62.0187 107.442 62.2119 107.442 62.4101C107.442 62.6083 107.382 62.8052 107.31 62.8477C107.237 62.8903 107.178 63.0631 107.178 63.2319C107.178 63.4007 107.124 63.6364 107.058 63.7558C106.993 63.8753 106.868 64.2263 106.781 64.5358C106.694 64.8452 106.57 65.1963 106.504 65.3157C106.438 65.4351 106.385 65.6427 106.385 65.7771C106.385 65.9115 106.325 66.0563 106.252 66.0988C106.18 66.1413 106.12 66.3041 106.12 66.4604C106.12 66.6167 106.081 66.7815 106.034 66.8265C105.986 66.8715 105.784 67.3451 105.585 67.879C105.386 68.4129 105.034 69.3279 104.803 69.9125C104.573 70.497 104.438 70.919 104.504 70.8503C104.57 70.7815 104.699 70.5283 104.791 70.2876C105.114 69.4392 105.408 68.7518 105.607 68.3823C105.671 68.2629 105.724 68.0631 105.724 67.9384C105.724 67.8137 105.771 67.6583 105.829 67.593C105.887 67.5276 106.01 67.2491 106.102 66.974C106.194 66.699 106.319 66.3614 106.378 66.2238C106.438 66.0863 106.559 65.7205 106.647 65.411C106.735 65.1016 106.86 64.7505 106.926 64.6311C106.992 64.5117 107.045 64.3041 107.045 64.1697C107.045 64.0353 107.098 63.8943 107.163 63.8565C107.227 63.8187 107.311 63.6045 107.349 63.3804C107.386 63.1563 107.478 62.7758 107.551 62.5351C108.238 60.2873 109.125 56.4586 108.988 56.3291C108.946 56.2898 108.876 56.4745 108.831 56.7393ZM59.4056 56.5333C59.2279 56.6055 59.4657 56.6396 60.1324 56.6371C60.8203 56.6346 61.0224 56.6027 60.7932 56.5333C60.3548 56.4004 59.7323 56.4004 59.4056 56.5333ZM58.0554 56.9265C54.9343 58.3592 54.5964 62.5705 57.4531 64.4301L58.0127 64.7946L58.0511 67.4473L58.0897 70.1L58.1198 67.3835L58.1502 64.6674L57.7798 64.4861C54.746 63.0015 54.9961 58.5067 58.1941 57.0387C58.6424 56.8331 58.9199 56.6661 58.8109 56.6677C58.7019 56.6696 58.362 56.7858 58.0554 56.9265ZM61.3218 56.7833C61.4308 56.8499 61.6092 56.9046 61.7182 56.9046C61.8943 56.9046 61.8943 56.8912 61.7182 56.7833C61.6092 56.7168 61.4308 56.6621 61.3218 56.6621C61.1457 56.6621 61.1457 56.6755 61.3218 56.7833ZM62.2468 57.1263C65.1455 58.9231 65.3229 62.3132 62.6234 64.326L61.9825 64.804V67.5064C61.9825 69.9734 61.9591 70.2548 61.7119 70.7371C60.9937 72.1413 58.7617 71.9619 58.2873 70.462L58.173 70.1L58.1614 70.4398C58.135 71.2307 59.5899 72.0691 60.5279 71.8031C61.9693 71.3945 62.1147 71.0081 62.1147 67.5861V64.7977L62.6763 64.4301C65.0252 62.8915 65.3771 60.04 63.4814 57.9081C63.1382 57.522 62.224 56.9018 62.0182 56.9149C61.9624 56.9187 62.0651 57.0137 62.2468 57.1263ZM11.2597 57.4085C11.2659 57.9243 11.4741 58.4576 11.479 57.9712C11.481 57.7649 11.4318 57.4836 11.3694 57.346C11.266 57.1188 11.256 57.1244 11.2597 57.4085ZM11.524 58.5964C11.526 58.734 11.5755 58.9872 11.6337 59.1591L11.7394 59.4717L11.7433 59.1591C11.7453 58.9872 11.6961 58.734 11.6337 58.5964L11.52 58.3463L11.524 58.5964ZM11.781 59.6592C11.7873 59.7624 11.8398 59.9875 11.898 60.1594L12.0037 60.472L12.0149 60.1594C12.0212 59.9875 11.9683 59.7624 11.898 59.6592C11.784 59.4926 11.7711 59.4926 11.781 59.6592ZM12.0413 60.7221C12.0539 61.1491 12.2739 61.548 12.2832 61.1597C12.2871 60.9878 12.2326 60.7627 12.1623 60.6596C12.0565 60.5048 12.0354 60.5158 12.0413 60.7221ZM12.304 61.5974C12.2994 61.6661 12.4097 62.0881 12.5491 62.5351C12.6885 62.9822 12.8075 63.2394 12.8128 63.1066C12.8266 62.7774 12.3248 61.2888 12.304 61.5974ZM12.8848 63.6761C13.1217 64.4548 14.0487 67.1682 14.2681 67.7243C15.3091 70.3629 15.467 70.7499 15.7742 71.4148C15.8862 71.6564 16.0425 72.0159 16.1218 72.2135C16.2014 72.4114 16.2939 72.5467 16.3276 72.5148C16.3613 72.483 16.0725 71.7296 15.686 70.8409C15.2995 69.9519 14.792 68.6902 14.5581 68.0369C14.3245 67.3835 14.0764 66.7512 14.0067 66.6317C13.937 66.5123 13.8802 66.3288 13.8802 66.2238C13.8802 66.1188 13.8277 65.9353 13.7632 65.8159C13.5822 65.4795 13.0873 63.9637 13.0873 63.7452C13.0873 63.638 13.0216 63.5117 12.9409 63.4648C12.8412 63.4064 12.8233 63.4739 12.8848 63.6761ZM104.1 71.5433C103.978 71.8399 103.902 72.1066 103.934 72.1363C104.014 72.2126 104.418 71.2685 104.366 71.1235C104.343 71.0578 104.224 71.2466 104.1 71.5433ZM16.391 72.7099C16.391 72.8521 17.3508 74.7977 17.3987 74.7524C17.4228 74.7296 17.2421 74.2754 16.9976 73.7427C16.5767 72.8265 16.391 72.5108 16.391 72.7099ZM103.287 73.3529C103.002 73.9987 103.039 74.0719 103.361 73.4955C103.508 73.231 103.598 72.9859 103.561 72.9506C103.523 72.9153 103.4 73.0963 103.287 73.3529ZM102.634 74.6821C102.444 75.0428 102.288 75.4117 102.288 75.5014C102.288 75.5908 102.229 75.6643 102.156 75.6643C102.083 75.6643 102.024 75.7493 102.024 75.8534C102.024 76.0297 101.782 76.522 101.625 76.6646C101.587 76.699 101.349 77.121 101.096 77.6024C100.542 78.6583 98.8006 81.5827 98.4458 82.0541C98.306 82.2404 98.1914 82.4279 98.1914 82.4711C98.1914 82.5142 97.7751 83.1369 97.2663 83.8543C96.7576 84.5717 96.3413 85.2123 96.3413 85.2776C96.3413 85.3429 96.2934 85.4151 96.2346 85.4383C96.1758 85.4611 95.929 85.7612 95.6858 86.105C95.1536 86.8581 92.7772 89.9131 92.541 90.1485C92.4485 90.2404 92.2106 90.5217 92.0121 90.7737C91.8139 91.0256 91.6206 91.2598 91.5829 91.2942C91.5453 91.3286 91.2476 91.6662 90.9215 92.0444C90.3246 92.7371 89.9509 93.1444 88.748 94.4155C87.6208 95.6061 82.4818 100.451 81.5812 101.172C81.1088 101.551 80.5633 102.001 80.3691 102.173C80.0457 102.459 78.929 103.345 78.3191 103.798C78.1804 103.901 77.8824 104.13 77.6564 104.306C77.4304 104.482 76.7403 104.988 76.1225 105.431C75.5047 105.874 74.9695 106.267 74.9331 106.305C74.8968 106.343 74.6589 106.509 74.4045 106.674C74.1501 106.839 73.9123 107.005 73.8759 107.043C73.8396 107.081 73.7144 107.168 73.5978 107.237C73.4808 107.305 72.5888 107.872 71.6155 108.495C69.8646 109.617 67.5169 111.032 66.5929 111.523C66.3302 111.663 65.9734 111.853 65.8 111.945C65.6265 112.038 65.4547 112.141 65.4184 112.176C65.347 112.243 64.648 112.608 63.7004 113.072C63.3734 113.233 63.076 113.395 63.0397 113.433C63.0034 113.471 62.5871 113.68 62.1147 113.897C61.6422 114.114 61.3373 114.294 61.4367 114.297C61.6502 114.302 64.1187 113.077 65.5505 112.254C66.5436 111.684 66.8142 111.541 67.0372 111.47C67.1644 111.43 67.2685 111.347 67.2685 111.286C67.2685 111.225 67.3293 111.175 67.4036 111.175C67.4779 111.175 67.988 110.894 68.5368 110.55C69.0855 110.206 69.5649 109.925 69.6022 109.925C69.8071 109.925 75.4016 106.169 77.1793 104.837C80.455 102.385 82.5347 100.624 85.6372 97.6762C87.4589 95.9453 88.0959 95.301 90.2056 93.0547C91.3659 91.8196 93.8678 88.7859 95.2666 86.9178C96.6403 85.0835 99.5129 80.8218 99.5129 80.618C99.5129 80.5896 99.7375 80.2088 100.012 79.7721C100.286 79.3351 100.598 78.809 100.706 78.6027C100.813 78.3964 100.934 78.1994 100.975 78.165C101.123 78.0409 103.096 74.1369 103.039 74.0822C103.006 74.0513 102.824 74.321 102.634 74.6821ZM17.4482 74.9934C17.4482 75.0791 19.4708 78.7952 19.9402 79.5717C20.0958 79.8296 20.3423 80.2376 20.4877 80.4783C20.633 80.719 20.8626 81.0988 20.9981 81.3223C26.1076 89.7627 34.3395 98.4836 43.701 105.373C45.2101 106.484 46.6532 107.438 46.6532 107.326C46.6532 107.272 46.4771 107.129 46.2617 107.009C46.0463 106.889 45.7936 106.72 45.7001 106.634C45.6066 106.548 45.3218 106.342 45.0674 106.176C44.5861 105.862 40.8221 103.061 40.7065 102.931C40.6701 102.89 40.315 102.604 39.9172 102.296C37.0813 100.095 32.5185 95.7784 29.7414 92.6671C29.3436 92.2216 28.9868 91.8287 28.9485 91.7943C28.9105 91.7599 28.6717 91.4786 28.4186 91.1691C28.1652 90.8597 27.885 90.5221 27.7965 90.4189C25.4964 87.7459 22.2139 83.1557 20.4193 80.1032C20.2171 79.7593 19.853 79.1404 19.6102 78.7277C19.3674 78.3151 18.8064 77.2882 18.3637 76.4458C17.6306 75.0519 17.4482 74.7624 17.4482 74.9934ZM46.9221 107.594C47.2575 107.887 51.7165 110.668 52.6776 111.184C53.554 111.654 53.9951 111.895 54.6816 112.28C55.7269 112.867 56.1679 113.068 56.1679 112.959C56.1679 112.904 55.9449 112.764 55.6724 112.646C55.1738 112.432 54.4408 112.042 54.3179 111.926C54.2815 111.891 54.1097 111.787 53.9363 111.695C53.1721 111.288 52.7479 111.05 52.0052 110.614C51.5691 110.358 51.0042 110.028 50.7498 109.882C49.6427 109.246 47.2046 107.686 47.1233 107.561C47.0741 107.486 46.9654 107.424 46.8815 107.424C46.786 107.424 46.8012 107.488 46.9221 107.594ZM56.5019 113.223C56.9473 113.517 58.6342 114.301 58.8218 114.301C58.9768 114.301 56.4683 113.058 56.3037 113.053C56.2694 113.052 56.3586 113.129 56.5019 113.223ZM59.3395 114.43C59.7726 114.556 60.8179 114.573 61.0112 114.456C61.0948 114.405 60.6785 114.357 60.0862 114.349C59.4063 114.339 59.1311 114.369 59.3395 114.43Z" fill="#14B8A6"/>
</svg>
